<svg width="335" height="320" xmlns="http://www.w3.org/2000/svg" xmlns:xlink="http://www.w3.org/1999/xlink"><defs><filter x="-1.5%" y="-1.6%" width="103%" height="106.5%" filterUnits="objectBoundingBox" id="a"><feOffset dy="10" in="SourceAlpha" result="shadowOffsetOuter1"/><feComposite in="shadowOffsetOuter1" in2="SourceAlpha" operator="out" result="shadowOffsetOuter1"/><feColorMatrix values="0 0 0 0 0 0 0 0 0 0 0 0 0 0 0 0 0 0 1 0" in="shadowOffsetOuter1"/></filter><path d="M355 148c11.046 0 20 8.954 20 20v270c0 11.046-8.954 20-20 20H60c-11.046 0-20-8.954-20-20V168c0-11.046 8.954-20 20-20h295Zm-7.563 244.178c-9.368 0-16.962 7.605-16.962 16.986 0 9.382 7.594 16.987 16.962 16.987 9.368 0 16.962-7.605 16.962-16.987 0-9.38-7.594-16.986-16.962-16.986Zm-46.646 0c-9.368 0-16.962 7.605-16.962 16.986 0 9.382 7.594 16.987 16.962 16.987 9.368 0 16.962-7.605 16.962-16.987 0-9.38-7.594-16.986-16.962-16.986Zm-46.645 0c-9.368 0-16.962 7.605-16.962 16.986 0 9.382 7.594 16.987 16.962 16.987 9.367 0 16.962-7.605 16.962-16.987 0-9.38-7.595-16.986-16.962-16.986Zm-93.292 0c-9.367 0-16.962 7.605-16.962 16.986 0 9.382 7.595 16.987 16.962 16.987 9.368 0 16.962-7.605 16.962-16.987 0-9.38-7.594-16.986-16.962-16.986Zm46.646 0c-9.368 0-16.962 7.605-16.962 16.986 0 9.382 7.594 16.987 16.962 16.987 9.368 0 16.962-7.605 16.962-16.987 0-9.38-7.594-16.986-16.962-16.986Zm-93.291 0c-9.368 0-16.962 7.605-16.962 16.986 0 9.382 7.594 16.987 16.962 16.987 9.368 0 16.962-7.605 16.962-16.987 0-9.273-7.42-16.81-16.64-16.983Zm-46.646 0c-9.368 0-16.962 7.605-16.962 16.986 0 9.382 7.594 16.987 16.962 16.987 9.368 0 16.962-7.605 16.962-16.987 0-9.38-7.594-16.986-16.962-16.986Zm279.874-46.712c-9.368 0-16.962 7.605-16.962 16.986s7.594 16.986 16.962 16.986c9.368 0 16.962-7.605 16.962-16.986s-7.594-16.986-16.962-16.986Zm-46.646 0c-9.368 0-16.962 7.605-16.962 16.986s7.594 16.986 16.962 16.986c9.368 0 16.962-7.605 16.962-16.986s-7.594-16.986-16.962-16.986Zm-46.645 0c-9.368 0-16.962 7.605-16.962 16.986s7.594 16.986 16.962 16.986c9.367 0 16.962-7.605 16.962-16.986s-7.595-16.986-16.962-16.986Zm-46.646 0c-9.368 0-16.962 7.605-16.962 16.986s7.594 16.986 16.962 16.986c9.368 0 16.962-7.605 16.962-16.986s-7.594-16.986-16.962-16.986Zm-46.646 0c-9.367 0-16.962 7.605-16.962 16.986s7.595 16.986 16.962 16.986c9.368 0 16.962-7.605 16.962-16.986s-7.594-16.986-16.962-16.986Zm-46.645 0c-9.368 0-16.962 7.605-16.962 16.986s7.594 16.986 16.962 16.986c9.368 0 16.962-7.605 16.962-16.986s-7.594-16.986-16.962-16.986Zm-46.646 0c-9.368 0-16.962 7.605-16.962 16.986s7.594 16.986 16.962 16.986c9.368 0 16.962-7.605 16.962-16.986s-7.594-16.986-16.962-16.986Zm0-46.713c-9.368 0-16.962 7.605-16.962 16.987 0 9.381 7.594 16.986 16.962 16.986 9.368 0 16.962-7.605 16.962-16.986 0-9.382-7.594-16.987-16.962-16.987Zm46.646 0c-9.368 0-16.962 7.605-16.962 16.987 0 9.381 7.594 16.986 16.962 16.986 9.368 0 16.962-7.605 16.962-16.986 0-9.382-7.594-16.987-16.962-16.987Zm46.645 0c-9.367 0-16.962 7.605-16.962 16.987 0 9.381 7.595 16.986 16.962 16.986 9.368 0 16.962-7.605 16.962-16.986 0-9.382-7.594-16.987-16.962-16.987Zm46.646 0c-9.368 0-16.962 7.605-16.962 16.987 0 9.381 7.594 16.986 16.962 16.986 9.368 0 16.962-7.605 16.962-16.986 0-9.382-7.594-16.987-16.962-16.987Zm46.646 0c-9.368 0-16.962 7.605-16.962 16.987 0 9.381 7.594 16.986 16.962 16.986 9.367 0 16.962-7.605 16.962-16.986 0-9.382-7.595-16.987-16.962-16.987Zm46.645 0c-9.368 0-16.962 7.605-16.962 16.987 0 9.381 7.594 16.986 16.962 16.986 9.368 0 16.962-7.605 16.962-16.986 0-9.382-7.594-16.987-16.962-16.987Zm46.646 0c-9.368 0-16.962 7.605-16.962 16.987 0 9.381 7.594 16.986 16.962 16.986 9.368 0 16.962-7.605 16.962-16.986 0-9.382-7.594-16.987-16.962-16.987Zm-233.228-46.712c-9.368 0-16.962 7.605-16.962 16.986 0 9.382 7.594 16.987 16.962 16.987 9.368 0 16.962-7.605 16.962-16.987 0-9.38-7.594-16.986-16.962-16.986Zm46.645 0c-9.367 0-16.962 7.605-16.962 16.986 0 9.382 7.595 16.987 16.962 16.987 9.368 0 16.962-7.605 16.962-16.987 0-9.38-7.594-16.986-16.962-16.986Zm46.646 0c-9.368 0-16.962 7.605-16.962 16.986 0 9.382 7.594 16.987 16.962 16.987 9.368 0 16.962-7.605 16.962-16.987 0-9.38-7.594-16.986-16.962-16.986Zm46.646 0c-9.368 0-16.962 7.605-16.962 16.986 0 9.382 7.594 16.987 16.962 16.987 9.367 0 16.962-7.605 16.962-16.987 0-9.38-7.595-16.986-16.962-16.986Zm46.645 0c-9.368 0-16.962 7.605-16.962 16.986 0 9.382 7.594 16.987 16.962 16.987 9.368 0 16.962-7.605 16.962-16.987 0-9.38-7.594-16.986-16.962-16.986Zm46.646 0c-9.368 0-16.962 7.605-16.962 16.986 0 9.382 7.594 16.987 16.962 16.987 9.368 0 16.962-7.605 16.962-16.987 0-9.38-7.594-16.986-16.962-16.986Zm-279.874 0c-9.368 0-16.962 7.605-16.962 16.986 0 9.382 7.594 16.987 16.962 16.987 9.368 0 16.962-7.605 16.962-16.987 0-9.38-7.594-16.986-16.962-16.986Zm279.874-46.712c-9.368 0-16.962 7.605-16.962 16.986s7.594 16.986 16.962 16.986c9.368 0 16.962-7.605 16.962-16.986s-7.594-16.986-16.962-16.986Zm-46.646 0c-9.368 0-16.962 7.605-16.962 16.986s7.594 16.986 16.962 16.986c9.368 0 16.962-7.605 16.962-16.986s-7.594-16.986-16.962-16.986Zm-46.645 0c-9.368 0-16.962 7.605-16.962 16.986s7.594 16.986 16.962 16.986c9.367 0 16.962-7.605 16.962-16.986s-7.595-16.986-16.962-16.986Zm-46.646 0c-9.368 0-16.962 7.605-16.962 16.986s7.594 16.986 16.962 16.986c9.368 0 16.962-7.605 16.962-16.986s-7.594-16.986-16.962-16.986Zm-46.646 0c-9.367 0-16.962 7.605-16.962 16.986s7.595 16.986 16.962 16.986c9.368 0 16.962-7.605 16.962-16.986s-7.594-16.986-16.962-16.986Zm-46.645 0c-9.368 0-16.962 7.605-16.962 16.986s7.594 16.986 16.962 16.986c9.368 0 16.962-7.605 16.962-16.986s-7.594-16.986-16.962-16.986Zm-46.646 0c-9.368 0-16.962 7.605-16.962 16.986s7.594 16.986 16.962 16.986c9.368 0 16.962-7.605 16.962-16.986s-7.594-16.986-16.962-16.986Zm279.874-46.713c-9.368 0-16.962 7.605-16.962 16.987 0 9.381 7.594 16.986 16.962 16.986 9.368 0 16.962-7.605 16.962-16.986 0-9.382-7.594-16.987-16.962-16.987Zm-46.646 0c-9.368 0-16.962 7.605-16.962 16.987 0 9.381 7.594 16.986 16.962 16.986 9.368 0 16.962-7.605 16.962-16.986 0-9.382-7.594-16.987-16.962-16.987Zm-46.645 0c-9.368 0-16.962 7.605-16.962 16.987 0 9.381 7.594 16.986 16.962 16.986 9.367 0 16.962-7.605 16.962-16.986 0-9.382-7.595-16.987-16.962-16.987Zm-46.646 0c-9.368 0-16.962 7.605-16.962 16.987 0 9.381 7.594 16.986 16.962 16.986 9.368 0 16.962-7.605 16.962-16.986 0-9.382-7.594-16.987-16.962-16.987Zm-46.646 0c-9.367 0-16.962 7.605-16.962 16.987 0 9.381 7.595 16.986 16.962 16.986 9.368 0 16.962-7.605 16.962-16.986 0-9.382-7.594-16.987-16.962-16.987Zm-46.645 0c-9.368 0-16.962 7.605-16.962 16.987 0 9.381 7.594 16.986 16.962 16.986 9.368 0 16.962-7.605 16.962-16.986 0-9.382-7.594-16.987-16.962-16.987Zm-46.646 0c-9.368 0-16.962 7.605-16.962 16.987 0 9.381 7.594 16.986 16.962 16.986 9.368 0 16.962-7.605 16.962-16.986 0-9.382-7.594-16.987-16.962-16.987Z" id="b"/></defs><g transform="translate(-40 -148)" fill="#000" fill-rule="evenodd"><use filter="url(#a)" xlink:href="#b"/><path stroke="#000" stroke-width="3" d="M355 149.5c5.109 0 9.734 2.07 13.081 5.419A18.442 18.442 0 0 1 373.5 168v270c0 5.109-2.07 9.734-5.419 13.081A18.442 18.442 0 0 1 355 456.5H60c-5.109 0-9.734-2.07-13.081-5.419A18.442 18.442 0 0 1 41.5 438V168c0-5.109 2.07-9.734 5.419-13.081A18.442 18.442 0 0 1 60 149.5h295Zm-7.563 241.178c-5.099 0-9.715 2.07-13.056 5.415a18.44 18.44 0 0 0-5.406 13.071 18.44 18.44 0 0 0 5.406 13.071 18.392 18.392 0 0 0 13.056 5.416c5.098 0 9.714-2.07 13.055-5.416a18.44 18.44 0 0 0 5.407-13.07 18.44 18.44 0 0 0-5.407-13.072 18.392 18.392 0 0 0-13.055-5.415Zm-46.646 0c-5.098 0-9.714 2.07-13.055 5.415a18.44 18.44 0 0 0-5.407 13.071 18.44 18.44 0 0 0 5.407 13.071 18.392 18.392 0 0 0 13.055 5.416c5.099 0 9.714-2.07 13.056-5.416a18.44 18.44 0 0 0 5.406-13.07 18.44 18.44 0 0 0-5.406-13.072 18.392 18.392 0 0 0-13.056-5.415Zm-46.645 0c-5.099 0-9.715 2.07-13.056 5.415a18.44 18.44 0 0 0-5.406 13.071 18.44 18.44 0 0 0 5.406 13.071 18.392 18.392 0 0 0 13.056 5.416c5.098 0 9.714-2.07 13.055-5.416a18.44 18.44 0 0 0 5.407-13.07 18.44 18.44 0 0 0-5.407-13.072 18.392 18.392 0 0 0-13.055-5.415Zm-93.292 0c-5.098 0-9.714 2.07-13.055 5.415a18.44 18.44 0 0 0-5.407 13.071 18.44 18.44 0 0 0 5.407 13.071 18.392 18.392 0 0 0 13.055 5.416c5.099 0 9.715-2.07 13.056-5.416a18.44 18.44 0 0 0 5.406-13.07 18.44 18.44 0 0 0-5.406-13.072 18.392 18.392 0 0 0-13.056-5.415Zm46.646 0c-5.098 0-9.714 2.07-13.055 5.415a18.44 18.44 0 0 0-5.407 13.071 18.44 18.44 0 0 0 5.407 13.071 18.392 18.392 0 0 0 13.055 5.416c5.098 0 9.714-2.07 13.055-5.416a18.44 18.44 0 0 0 5.407-13.07 18.44 18.44 0 0 0-5.407-13.072 18.392 18.392 0 0 0-13.055-5.415Zm-93.291 0c-5.099 0-9.714 2.07-13.056 5.415a18.44 18.44 0 0 0-5.406 13.071 18.44 18.44 0 0 0 5.406 13.071 18.392 18.392 0 0 0 13.056 5.416c5.098 0 9.714-2.07 13.055-5.416a18.44 18.44 0 0 0 5.407-13.07c0-5.064-2.032-9.652-5.368-12.992-3.307-3.312-7.9-5.4-13.094-5.495Zm-46.646 0c-5.098 0-9.714 2.07-13.055 5.415a18.44 18.44 0 0 0-5.407 13.071 18.44 18.44 0 0 0 5.407 13.071 18.392 18.392 0 0 0 13.055 5.416c5.099 0 9.715-2.07 13.056-5.416a18.44 18.44 0 0 0 5.406-13.07 18.44 18.44 0 0 0-5.406-13.072 18.392 18.392 0 0 0-13.056-5.415Zm279.874-46.712c-5.099 0-9.715 2.07-13.056 5.415a18.44 18.44 0 0 0-5.406 13.071 18.44 18.44 0 0 0 5.406 13.071 18.392 18.392 0 0 0 13.056 5.415c5.098 0 9.714-2.069 13.055-5.415a18.44 18.44 0 0 0 5.407-13.07 18.44 18.44 0 0 0-5.407-13.072 18.392 18.392 0 0 0-13.055-5.415Zm-46.646 0c-5.098 0-9.714 2.07-13.055 5.415a18.44 18.44 0 0 0-5.407 13.071 18.44 18.44 0 0 0 5.407 13.071 18.392 18.392 0 0 0 13.055 5.415c5.099 0 9.714-2.069 13.056-5.415a18.44 18.44 0 0 0 5.406-13.07 18.44 18.44 0 0 0-5.406-13.072 18.392 18.392 0 0 0-13.056-5.415Zm-46.645 0c-5.099 0-9.715 2.07-13.056 5.415a18.44 18.44 0 0 0-5.406 13.071 18.44 18.44 0 0 0 5.406 13.071 18.392 18.392 0 0 0 13.056 5.415c5.098 0 9.714-2.069 13.055-5.415a18.44 18.44 0 0 0 5.407-13.07 18.44 18.44 0 0 0-5.407-13.072 18.392 18.392 0 0 0-13.055-5.415Zm-46.646 0c-5.098 0-9.714 2.07-13.055 5.415a18.44 18.44 0 0 0-5.407 13.071 18.44 18.44 0 0 0 5.407 13.071 18.392 18.392 0 0 0 13.055 5.415c5.098 0 9.714-2.069 13.055-5.415a18.44 18.44 0 0 0 5.407-13.07 18.44 18.44 0 0 0-5.407-13.072 18.392 18.392 0 0 0-13.055-5.415Zm-46.646 0c-5.098 0-9.714 2.07-13.055 5.415a18.44 18.44 0 0 0-5.407 13.071 18.44 18.44 0 0 0 5.407 13.071 18.392 18.392 0 0 0 13.055 5.415c5.099 0 9.715-2.069 13.056-5.415a18.44 18.44 0 0 0 5.406-13.07 18.44 18.44 0 0 0-5.406-13.072 18.392 18.392 0 0 0-13.056-5.415Zm-46.645 0c-5.099 0-9.714 2.07-13.056 5.415a18.44 18.44 0 0 0-5.406 13.071 18.44 18.44 0 0 0 5.406 13.071 18.392 18.392 0 0 0 13.056 5.415c5.098 0 9.714-2.069 13.055-5.415a18.44 18.44 0 0 0 5.407-13.07 18.44 18.44 0 0 0-5.407-13.072 18.392 18.392 0 0 0-13.055-5.415Zm-46.646 0c-5.098 0-9.714 2.07-13.055 5.415a18.44 18.44 0 0 0-5.407 13.071 18.44 18.44 0 0 0 5.407 13.071 18.392 18.392 0 0 0 13.055 5.415c5.099 0 9.715-2.069 13.056-5.415a18.44 18.44 0 0 0 5.406-13.07 18.44 18.44 0 0 0-5.406-13.072 18.392 18.392 0 0 0-13.056-5.415Zm0-46.713c-5.098 0-9.714 2.07-13.055 5.416a18.44 18.44 0 0 0-5.407 13.07 18.44 18.44 0 0 0 5.407 13.072 18.392 18.392 0 0 0 13.055 5.415c5.099 0 9.715-2.07 13.056-5.415a18.44 18.44 0 0 0 5.406-13.071 18.44 18.44 0 0 0-5.406-13.071 18.392 18.392 0 0 0-13.056-5.416Zm46.646 0c-5.099 0-9.714 2.07-13.056 5.416a18.44 18.44 0 0 0-5.406 13.07 18.44 18.44 0 0 0 5.406 13.072 18.392 18.392 0 0 0 13.056 5.415c5.098 0 9.714-2.07 13.055-5.415a18.44 18.44 0 0 0 5.407-13.071 18.44 18.44 0 0 0-5.407-13.071 18.392 18.392 0 0 0-13.055-5.416Zm46.645 0c-5.098 0-9.714 2.07-13.055 5.416a18.44 18.44 0 0 0-5.407 13.07 18.44 18.44 0 0 0 5.407 13.072 18.392 18.392 0 0 0 13.055 5.415c5.099 0 9.715-2.07 13.056-5.415a18.44 18.44 0 0 0 5.406-13.071 18.44 18.44 0 0 0-5.406-13.071 18.392 18.392 0 0 0-13.056-5.416Zm46.646 0c-5.098 0-9.714 2.07-13.055 5.416a18.44 18.44 0 0 0-5.407 13.07 18.44 18.44 0 0 0 5.407 13.072 18.392 18.392 0 0 0 13.055 5.415c5.098 0 9.714-2.07 13.055-5.415a18.44 18.44 0 0 0 5.407-13.071 18.44 18.44 0 0 0-5.407-13.071 18.392 18.392 0 0 0-13.055-5.416Zm46.646 0c-5.099 0-9.715 2.07-13.056 5.416a18.44 18.44 0 0 0-5.406 13.07 18.44 18.44 0 0 0 5.406 13.072 18.392 18.392 0 0 0 13.056 5.415c5.098 0 9.714-2.07 13.055-5.415a18.44 18.44 0 0 0 5.407-13.071 18.44 18.44 0 0 0-5.407-13.071 18.392 18.392 0 0 0-13.055-5.416Zm46.645 0c-5.098 0-9.714 2.07-13.055 5.416a18.44 18.44 0 0 0-5.407 13.07 18.44 18.44 0 0 0 5.407 13.072 18.392 18.392 0 0 0 13.055 5.415c5.099 0 9.714-2.07 13.056-5.415a18.44 18.44 0 0 0 5.406-13.071 18.44 18.44 0 0 0-5.406-13.071 18.392 18.392 0 0 0-13.056-5.416Zm46.646 0c-5.099 0-9.715 2.07-13.056 5.416a18.44 18.44 0 0 0-5.406 13.07 18.44 18.44 0 0 0 5.406 13.072 18.392 18.392 0 0 0 13.056 5.415c5.098 0 9.714-2.07 13.055-5.415a18.44 18.44 0 0 0 5.407-13.071 18.44 18.44 0 0 0-5.407-13.071 18.392 18.392 0 0 0-13.055-5.416Zm-233.228-46.712c-5.099 0-9.714 2.07-13.056 5.415a18.44 18.44 0 0 0-5.406 13.071 18.44 18.44 0 0 0 5.406 13.071 18.392 18.392 0 0 0 13.056 5.416c5.098 0 9.714-2.07 13.055-5.416a18.44 18.44 0 0 0 5.407-13.07 18.44 18.44 0 0 0-5.407-13.072 18.392 18.392 0 0 0-13.055-5.415Zm46.645 0c-5.098 0-9.714 2.07-13.055 5.415a18.44 18.44 0 0 0-5.407 13.071 18.44 18.44 0 0 0 5.407 13.071 18.392 18.392 0 0 0 13.055 5.416c5.099 0 9.715-2.07 13.056-5.416a18.44 18.44 0 0 0 5.406-13.07 18.44 18.44 0 0 0-5.406-13.072 18.392 18.392 0 0 0-13.056-5.415Zm46.646 0c-5.098 0-9.714 2.07-13.055 5.415a18.44 18.44 0 0 0-5.407 13.071 18.44 18.44 0 0 0 5.407 13.071 18.392 18.392 0 0 0 13.055 5.416c5.098 0 9.714-2.07 13.055-5.416a18.44 18.44 0 0 0 5.407-13.07 18.44 18.44 0 0 0-5.407-13.072 18.392 18.392 0 0 0-13.055-5.415Zm46.646 0c-5.099 0-9.715 2.07-13.056 5.415a18.44 18.44 0 0 0-5.406 13.071 18.44 18.44 0 0 0 5.406 13.071 18.392 18.392 0 0 0 13.056 5.416c5.098 0 9.714-2.07 13.055-5.416a18.44 18.44 0 0 0 5.407-13.07 18.44 18.44 0 0 0-5.407-13.072 18.392 18.392 0 0 0-13.055-5.415Zm46.645 0c-5.098 0-9.714 2.07-13.055 5.415a18.44 18.44 0 0 0-5.407 13.071 18.44 18.44 0 0 0 5.407 13.071 18.392 18.392 0 0 0 13.055 5.416c5.099 0 9.714-2.07 13.056-5.416a18.44 18.44 0 0 0 5.406-13.07 18.44 18.44 0 0 0-5.406-13.072 18.392 18.392 0 0 0-13.056-5.415Zm46.646 0c-5.099 0-9.715 2.07-13.056 5.415a18.44 18.44 0 0 0-5.406 13.071 18.44 18.44 0 0 0 5.406 13.071 18.392 18.392 0 0 0 13.056 5.416c5.098 0 9.714-2.07 13.055-5.416a18.44 18.44 0 0 0 5.407-13.07 18.44 18.44 0 0 0-5.407-13.072 18.392 18.392 0 0 0-13.055-5.415Zm-279.874 0c-5.098 0-9.714 2.07-13.055 5.415a18.44 18.44 0 0 0-5.407 13.071 18.44 18.44 0 0 0 5.407 13.071 18.392 18.392 0 0 0 13.055 5.416c5.099 0 9.715-2.07 13.056-5.416a18.44 18.44 0 0 0 5.406-13.07 18.44 18.44 0 0 0-5.406-13.072 18.392 18.392 0 0 0-13.056-5.415Zm279.874-46.712c-5.099 0-9.715 2.07-13.056 5.415a18.44 18.44 0 0 0-5.406 13.071 18.44 18.44 0 0 0 5.406 13.071 18.392 18.392 0 0 0 13.056 5.415c5.098 0 9.714-2.069 13.055-5.415a18.44 18.44 0 0 0 5.407-13.07 18.44 18.44 0 0 0-5.407-13.072 18.392 18.392 0 0 0-13.055-5.415Zm-46.646 0c-5.098 0-9.714 2.07-13.055 5.415a18.44 18.44 0 0 0-5.407 13.071 18.44 18.44 0 0 0 5.407 13.071 18.392 18.392 0 0 0 13.055 5.415c5.099 0 9.714-2.069 13.056-5.415a18.44 18.44 0 0 0 5.406-13.07 18.44 18.44 0 0 0-5.406-13.072 18.392 18.392 0 0 0-13.056-5.415Zm-46.645 0c-5.099 0-9.715 2.07-13.056 5.415a18.44 18.44 0 0 0-5.406 13.071 18.44 18.44 0 0 0 5.406 13.071 18.392 18.392 0 0 0 13.056 5.415c5.098 0 9.714-2.069 13.055-5.415a18.44 18.44 0 0 0 5.407-13.07 18.44 18.44 0 0 0-5.407-13.072 18.392 18.392 0 0 0-13.055-5.415Zm-46.646 0c-5.098 0-9.714 2.07-13.055 5.415a18.44 18.44 0 0 0-5.407 13.071 18.44 18.44 0 0 0 5.407 13.071 18.392 18.392 0 0 0 13.055 5.415c5.098 0 9.714-2.069 13.055-5.415a18.44 18.44 0 0 0 5.407-13.07 18.44 18.44 0 0 0-5.407-13.072 18.392 18.392 0 0 0-13.055-5.415Zm-46.646 0c-5.098 0-9.714 2.07-13.055 5.415a18.44 18.44 0 0 0-5.407 13.071 18.44 18.44 0 0 0 5.407 13.071 18.392 18.392 0 0 0 13.055 5.415c5.099 0 9.715-2.069 13.056-5.415a18.44 18.44 0 0 0 5.406-13.07 18.44 18.44 0 0 0-5.406-13.072 18.392 18.392 0 0 0-13.056-5.415Zm-46.645 0c-5.099 0-9.714 2.07-13.056 5.415a18.44 18.44 0 0 0-5.406 13.071 18.44 18.44 0 0 0 5.406 13.071 18.392 18.392 0 0 0 13.056 5.415c5.098 0 9.714-2.069 13.055-5.415a18.44 18.44 0 0 0 5.407-13.07 18.44 18.44 0 0 0-5.407-13.072 18.392 18.392 0 0 0-13.055-5.415Zm-46.646 0c-5.098 0-9.714 2.07-13.055 5.415a18.44 18.44 0 0 0-5.407 13.071 18.44 18.44 0 0 0 5.407 13.071 18.392 18.392 0 0 0 13.055 5.415c5.099 0 9.715-2.069 13.056-5.415a18.44 18.44 0 0 0 5.406-13.07 18.44 18.44 0 0 0-5.406-13.072 18.392 18.392 0 0 0-13.056-5.415Zm279.874-46.713c-5.099 0-9.715 2.07-13.056 5.416a18.44 18.44 0 0 0-5.406 13.07 18.44 18.44 0 0 0 5.406 13.072 18.392 18.392 0 0 0 13.056 5.415c5.098 0 9.714-2.07 13.055-5.415a18.44 18.44 0 0 0 5.407-13.071 18.44 18.44 0 0 0-5.407-13.071 18.392 18.392 0 0 0-13.055-5.416Zm-46.646 0c-5.098 0-9.714 2.07-13.055 5.416a18.44 18.44 0 0 0-5.407 13.07 18.44 18.44 0 0 0 5.407 13.072 18.392 18.392 0 0 0 13.055 5.415c5.099 0 9.714-2.07 13.056-5.415a18.44 18.44 0 0 0 5.406-13.071 18.44 18.44 0 0 0-5.406-13.071 18.392 18.392 0 0 0-13.056-5.416Zm-46.645 0c-5.099 0-9.715 2.07-13.056 5.416a18.44 18.44 0 0 0-5.406 13.07 18.44 18.44 0 0 0 5.406 13.072 18.392 18.392 0 0 0 13.056 5.415c5.098 0 9.714-2.07 13.055-5.415a18.44 18.44 0 0 0 5.407-13.071 18.44 18.44 0 0 0-5.407-13.071 18.392 18.392 0 0 0-13.055-5.416Zm-46.646 0c-5.098 0-9.714 2.07-13.055 5.416a18.44 18.44 0 0 0-5.407 13.07 18.44 18.44 0 0 0 5.407 13.072 18.392 18.392 0 0 0 13.055 5.415c5.098 0 9.714-2.07 13.055-5.415a18.44 18.44 0 0 0 5.407-13.071 18.44 18.44 0 0 0-5.407-13.071 18.392 18.392 0 0 0-13.055-5.416Zm-46.646 0c-5.098 0-9.714 2.07-13.055 5.416a18.44 18.44 0 0 0-5.407 13.07 18.44 18.44 0 0 0 5.407 13.072 18.392 18.392 0 0 0 13.055 5.415c5.099 0 9.715-2.07 13.056-5.415a18.44 18.44 0 0 0 5.406-13.071 18.44 18.44 0 0 0-5.406-13.071 18.392 18.392 0 0 0-13.056-5.416Zm-46.645 0c-5.099 0-9.714 2.07-13.056 5.416a18.44 18.44 0 0 0-5.406 13.07 18.44 18.44 0 0 0 5.406 13.072 18.392 18.392 0 0 0 13.056 5.415c5.098 0 9.714-2.07 13.055-5.415a18.44 18.44 0 0 0 5.407-13.071 18.44 18.44 0 0 0-5.407-13.071 18.392 18.392 0 0 0-13.055-5.416Zm-46.646 0c-5.098 0-9.714 2.07-13.055 5.416a18.44 18.44 0 0 0-5.407 13.07 18.44 18.44 0 0 0 5.407 13.072 18.392 18.392 0 0 0 13.055 5.415c5.099 0 9.715-2.07 13.056-5.415a18.44 18.44 0 0 0 5.406-13.071 18.44 18.44 0 0 0-5.406-13.071 18.392 18.392 0 0 0-13.056-5.416Z" stroke-linejoin="square"/></g></svg>