<svg width="335" height="310" xmlns="http://www.w3.org/2000/svg"><path d="M315 1.5c5.109 0 9.734 2.07 13.081 5.419A18.442 18.442 0 0 1 333.5 20v270c0 5.109-2.07 9.734-5.419 13.081A18.442 18.442 0 0 1 315 308.5H20c-5.109 0-9.734-2.07-13.081-5.419A18.442 18.442 0 0 1 1.5 290V20c0-5.109 2.07-9.734 5.419-13.081A18.442 18.442 0 0 1 20 1.5h295Zm-7.563 241.178c-5.099 0-9.715 2.07-13.056 5.415a18.44 18.44 0 0 0-5.406 13.071 18.44 18.44 0 0 0 5.406 13.071 18.392 18.392 0 0 0 13.056 5.416c5.098 0 9.714-2.07 13.055-5.416a18.44 18.44 0 0 0 5.407-13.07 18.44 18.44 0 0 0-5.407-13.072 18.392 18.392 0 0 0-13.055-5.415Zm-46.646 0c-5.098 0-9.714 2.07-13.055 5.415a18.44 18.44 0 0 0-5.407 13.071 18.44 18.44 0 0 0 5.407 13.071 18.392 18.392 0 0 0 13.055 5.416c5.099 0 9.714-2.07 13.056-5.416a18.44 18.44 0 0 0 5.406-13.07 18.44 18.44 0 0 0-5.406-13.072 18.392 18.392 0 0 0-13.056-5.415Zm-46.645 0c-5.099 0-9.715 2.07-13.056 5.415a18.44 18.44 0 0 0-5.406 13.071 18.44 18.44 0 0 0 5.406 13.071 18.392 18.392 0 0 0 13.056 5.416c5.098 0 9.714-2.07 13.055-5.416a18.44 18.44 0 0 0 5.407-13.07 18.44 18.44 0 0 0-5.407-13.072 18.392 18.392 0 0 0-13.055-5.415Zm-93.292 0c-5.098 0-9.714 2.07-13.055 5.415a18.44 18.44 0 0 0-5.407 13.071 18.44 18.44 0 0 0 5.407 13.071 18.392 18.392 0 0 0 13.055 5.416c5.099 0 9.715-2.07 13.056-5.416a18.44 18.44 0 0 0 5.406-13.07 18.44 18.44 0 0 0-5.406-13.072 18.392 18.392 0 0 0-13.056-5.415Zm46.646 0c-5.098 0-9.714 2.07-13.055 5.415a18.44 18.44 0 0 0-5.407 13.071 18.44 18.44 0 0 0 5.407 13.071 18.392 18.392 0 0 0 13.055 5.416c5.098 0 9.714-2.07 13.055-5.416a18.44 18.44 0 0 0 5.407-13.07 18.44 18.44 0 0 0-5.407-13.072 18.392 18.392 0 0 0-13.055-5.415Zm-93.291 0c-5.099 0-9.714 2.07-13.056 5.415a18.44 18.44 0 0 0-5.406 13.071 18.44 18.44 0 0 0 5.406 13.071 18.392 18.392 0 0 0 13.056 5.416c5.098 0 9.714-2.07 13.055-5.416a18.44 18.44 0 0 0 5.407-13.07c0-5.064-2.032-9.652-5.368-12.992-3.307-3.312-7.9-5.4-13.094-5.495Zm-46.646 0c-5.098 0-9.714 2.07-13.055 5.415A18.44 18.44 0 0 0 9.1 261.164a18.44 18.44 0 0 0 5.407 13.071 18.392 18.392 0 0 0 13.055 5.416c5.099 0 9.715-2.07 13.056-5.416a18.44 18.44 0 0 0 5.406-13.07 18.44 18.44 0 0 0-5.406-13.072 18.392 18.392 0 0 0-13.056-5.415Zm279.874-46.712c-5.099 0-9.715 2.07-13.056 5.415a18.44 18.44 0 0 0-5.406 13.071 18.44 18.44 0 0 0 5.406 13.071 18.392 18.392 0 0 0 13.056 5.415c5.098 0 9.714-2.069 13.055-5.415a18.44 18.44 0 0 0 5.407-13.07 18.44 18.44 0 0 0-5.407-13.072 18.392 18.392 0 0 0-13.055-5.415Zm-46.646 0c-5.098 0-9.714 2.07-13.055 5.415a18.44 18.44 0 0 0-5.407 13.071 18.44 18.44 0 0 0 5.407 13.071 18.392 18.392 0 0 0 13.055 5.415c5.099 0 9.714-2.069 13.056-5.415a18.44 18.44 0 0 0 5.406-13.07 18.44 18.44 0 0 0-5.406-13.072 18.392 18.392 0 0 0-13.056-5.415Zm-46.645 0c-5.099 0-9.715 2.07-13.056 5.415a18.44 18.44 0 0 0-5.406 13.071 18.44 18.44 0 0 0 5.406 13.071 18.392 18.392 0 0 0 13.056 5.415c5.098 0 9.714-2.069 13.055-5.415a18.44 18.44 0 0 0 5.407-13.07 18.44 18.44 0 0 0-5.407-13.072 18.392 18.392 0 0 0-13.055-5.415Zm-46.646 0c-5.098 0-9.714 2.07-13.055 5.415a18.44 18.44 0 0 0-5.407 13.071 18.44 18.44 0 0 0 5.407 13.071 18.392 18.392 0 0 0 13.055 5.415c5.098 0 9.714-2.069 13.055-5.415a18.44 18.44 0 0 0 5.407-13.07 18.44 18.44 0 0 0-5.407-13.072 18.392 18.392 0 0 0-13.055-5.415Zm-46.646 0c-5.098 0-9.714 2.07-13.055 5.415a18.44 18.44 0 0 0-5.407 13.071 18.44 18.44 0 0 0 5.407 13.071 18.392 18.392 0 0 0 13.055 5.415c5.099 0 9.715-2.069 13.056-5.415a18.44 18.44 0 0 0 5.406-13.07 18.44 18.44 0 0 0-5.406-13.072 18.392 18.392 0 0 0-13.056-5.415Zm-46.645 0c-5.099 0-9.714 2.07-13.056 5.415a18.44 18.44 0 0 0-5.406 13.071 18.44 18.44 0 0 0 5.406 13.071 18.392 18.392 0 0 0 13.056 5.415c5.098 0 9.714-2.069 13.055-5.415a18.44 18.44 0 0 0 5.407-13.07 18.44 18.44 0 0 0-5.407-13.072 18.392 18.392 0 0 0-13.055-5.415Zm-46.646 0c-5.098 0-9.714 2.07-13.055 5.415A18.44 18.44 0 0 0 9.1 214.452a18.44 18.44 0 0 0 5.407 13.071 18.392 18.392 0 0 0 13.055 5.415c5.099 0 9.715-2.069 13.056-5.415a18.44 18.44 0 0 0 5.406-13.07 18.44 18.44 0 0 0-5.406-13.072 18.392 18.392 0 0 0-13.056-5.415Zm0-46.713c-5.098 0-9.714 2.07-13.055 5.416a18.44 18.44 0 0 0-5.407 13.07 18.44 18.44 0 0 0 5.407 13.072 18.392 18.392 0 0 0 13.055 5.415c5.099 0 9.715-2.07 13.056-5.415a18.44 18.44 0 0 0 5.406-13.071 18.44 18.44 0 0 0-5.406-13.071 18.392 18.392 0 0 0-13.056-5.416Zm46.646 0c-5.099 0-9.714 2.07-13.056 5.416a18.44 18.44 0 0 0-5.406 13.07 18.44 18.44 0 0 0 5.406 13.072 18.392 18.392 0 0 0 13.056 5.415c5.098 0 9.714-2.07 13.055-5.415a18.44 18.44 0 0 0 5.407-13.071 18.44 18.44 0 0 0-5.407-13.071 18.392 18.392 0 0 0-13.055-5.416Zm46.645 0c-5.098 0-9.714 2.07-13.055 5.416a18.44 18.44 0 0 0-5.407 13.07 18.44 18.44 0 0 0 5.407 13.072 18.392 18.392 0 0 0 13.055 5.415c5.099 0 9.715-2.07 13.056-5.415a18.44 18.44 0 0 0 5.406-13.071 18.44 18.44 0 0 0-5.406-13.071 18.392 18.392 0 0 0-13.056-5.416Zm46.646 0c-5.098 0-9.714 2.07-13.055 5.416a18.44 18.44 0 0 0-5.407 13.07 18.44 18.44 0 0 0 5.407 13.072 18.392 18.392 0 0 0 13.055 5.415c5.098 0 9.714-2.07 13.055-5.415a18.44 18.44 0 0 0 5.407-13.071 18.44 18.44 0 0 0-5.407-13.071 18.392 18.392 0 0 0-13.055-5.416Zm46.646 0c-5.099 0-9.715 2.07-13.056 5.416a18.44 18.44 0 0 0-5.406 13.07 18.44 18.44 0 0 0 5.406 13.072 18.392 18.392 0 0 0 13.056 5.415c5.098 0 9.714-2.07 13.055-5.415a18.44 18.44 0 0 0 5.407-13.071 18.44 18.44 0 0 0-5.407-13.071 18.392 18.392 0 0 0-13.055-5.416Zm46.645 0c-5.098 0-9.714 2.07-13.055 5.416a18.44 18.44 0 0 0-5.407 13.07 18.44 18.44 0 0 0 5.407 13.072 18.392 18.392 0 0 0 13.055 5.415c5.099 0 9.714-2.07 13.056-5.415a18.44 18.44 0 0 0 5.406-13.071 18.44 18.44 0 0 0-5.406-13.071 18.392 18.392 0 0 0-13.056-5.416Zm46.646 0c-5.099 0-9.715 2.07-13.056 5.416a18.44 18.44 0 0 0-5.406 13.07 18.44 18.44 0 0 0 5.406 13.072 18.392 18.392 0 0 0 13.056 5.415c5.098 0 9.714-2.07 13.055-5.415a18.44 18.44 0 0 0 5.407-13.071 18.44 18.44 0 0 0-5.407-13.071 18.392 18.392 0 0 0-13.055-5.416ZM74.209 102.541c-5.099 0-9.714 2.07-13.056 5.415a18.44 18.44 0 0 0-5.406 13.071 18.44 18.44 0 0 0 5.406 13.071 18.392 18.392 0 0 0 13.056 5.416c5.098 0 9.714-2.07 13.055-5.416a18.44 18.44 0 0 0 5.407-13.07 18.44 18.44 0 0 0-5.407-13.072 18.392 18.392 0 0 0-13.055-5.415Zm46.645 0c-5.098 0-9.714 2.07-13.055 5.415a18.44 18.44 0 0 0-5.407 13.071 18.44 18.44 0 0 0 5.407 13.071 18.392 18.392 0 0 0 13.055 5.416c5.099 0 9.715-2.07 13.056-5.416a18.44 18.44 0 0 0 5.406-13.07 18.44 18.44 0 0 0-5.406-13.072 18.392 18.392 0 0 0-13.056-5.415Zm46.646 0c-5.098 0-9.714 2.07-13.055 5.415a18.44 18.44 0 0 0-5.407 13.071 18.44 18.44 0 0 0 5.407 13.071 18.392 18.392 0 0 0 13.055 5.416c5.098 0 9.714-2.07 13.055-5.416a18.44 18.44 0 0 0 5.407-13.07 18.44 18.44 0 0 0-5.407-13.072 18.392 18.392 0 0 0-13.055-5.415Zm46.646 0c-5.099 0-9.715 2.07-13.056 5.415a18.44 18.44 0 0 0-5.406 13.071 18.44 18.44 0 0 0 5.406 13.071 18.392 18.392 0 0 0 13.056 5.416c5.098 0 9.714-2.07 13.055-5.416a18.44 18.44 0 0 0 5.407-13.07 18.44 18.44 0 0 0-5.407-13.072 18.392 18.392 0 0 0-13.055-5.415Zm46.645 0c-5.098 0-9.714 2.07-13.055 5.415a18.44 18.44 0 0 0-5.407 13.071 18.44 18.44 0 0 0 5.407 13.071 18.392 18.392 0 0 0 13.055 5.416c5.099 0 9.714-2.07 13.056-5.416a18.44 18.44 0 0 0 5.406-13.07 18.44 18.44 0 0 0-5.406-13.072 18.392 18.392 0 0 0-13.056-5.415Zm46.646 0c-5.099 0-9.715 2.07-13.056 5.415a18.44 18.44 0 0 0-5.406 13.071 18.44 18.44 0 0 0 5.406 13.071 18.392 18.392 0 0 0 13.056 5.416c5.098 0 9.714-2.07 13.055-5.416a18.44 18.44 0 0 0 5.407-13.07 18.44 18.44 0 0 0-5.407-13.072 18.392 18.392 0 0 0-13.055-5.415Zm-279.874 0c-5.098 0-9.714 2.07-13.055 5.415A18.44 18.44 0 0 0 9.1 121.027a18.44 18.44 0 0 0 5.407 13.071 18.392 18.392 0 0 0 13.055 5.416c5.099 0 9.715-2.07 13.056-5.416a18.44 18.44 0 0 0 5.406-13.07 18.44 18.44 0 0 0-5.406-13.072 18.392 18.392 0 0 0-13.056-5.415ZM307.437 55.83c-5.099 0-9.715 2.07-13.056 5.415a18.44 18.44 0 0 0-5.406 13.071 18.44 18.44 0 0 0 5.406 13.071 18.392 18.392 0 0 0 13.056 5.415c5.098 0 9.714-2.069 13.055-5.415a18.44 18.44 0 0 0 5.407-13.07 18.44 18.44 0 0 0-5.407-13.072 18.392 18.392 0 0 0-13.055-5.415Zm-46.646 0c-5.098 0-9.714 2.07-13.055 5.415a18.44 18.44 0 0 0-5.407 13.071 18.44 18.44 0 0 0 5.407 13.071 18.392 18.392 0 0 0 13.055 5.415c5.099 0 9.714-2.069 13.056-5.415a18.44 18.44 0 0 0 5.406-13.07 18.44 18.44 0 0 0-5.406-13.072 18.392 18.392 0 0 0-13.056-5.415Zm-46.645 0c-5.099 0-9.715 2.07-13.056 5.415a18.44 18.44 0 0 0-5.406 13.071 18.44 18.44 0 0 0 5.406 13.071 18.392 18.392 0 0 0 13.056 5.415c5.098 0 9.714-2.069 13.055-5.415a18.44 18.44 0 0 0 5.407-13.07 18.44 18.44 0 0 0-5.407-13.072 18.392 18.392 0 0 0-13.055-5.415Zm-46.646 0c-5.098 0-9.714 2.07-13.055 5.415a18.44 18.44 0 0 0-5.407 13.071 18.44 18.44 0 0 0 5.407 13.071 18.392 18.392 0 0 0 13.055 5.415c5.098 0 9.714-2.069 13.055-5.415a18.44 18.44 0 0 0 5.407-13.07 18.44 18.44 0 0 0-5.407-13.072 18.392 18.392 0 0 0-13.055-5.415Zm-46.646 0c-5.098 0-9.714 2.07-13.055 5.415a18.44 18.44 0 0 0-5.407 13.071 18.44 18.44 0 0 0 5.407 13.071 18.392 18.392 0 0 0 13.055 5.415c5.099 0 9.715-2.069 13.056-5.415a18.44 18.44 0 0 0 5.406-13.07 18.44 18.44 0 0 0-5.406-13.072 18.392 18.392 0 0 0-13.056-5.415Zm-46.645 0c-5.099 0-9.714 2.07-13.056 5.415a18.44 18.44 0 0 0-5.406 13.071 18.44 18.44 0 0 0 5.406 13.071 18.392 18.392 0 0 0 13.056 5.415c5.098 0 9.714-2.069 13.055-5.415a18.44 18.44 0 0 0 5.407-13.07 18.44 18.44 0 0 0-5.407-13.072 18.392 18.392 0 0 0-13.055-5.415Zm-46.646 0c-5.098 0-9.714 2.07-13.055 5.415A18.44 18.44 0 0 0 9.1 74.315a18.44 18.44 0 0 0 5.407 13.071 18.392 18.392 0 0 0 13.055 5.415c5.099 0 9.715-2.069 13.056-5.415a18.44 18.44 0 0 0 5.406-13.07 18.44 18.44 0 0 0-5.406-13.072 18.392 18.392 0 0 0-13.056-5.415ZM307.437 9.116c-5.099 0-9.715 2.07-13.056 5.416a18.44 18.44 0 0 0-5.406 13.07 18.44 18.44 0 0 0 5.406 13.072 18.392 18.392 0 0 0 13.056 5.415c5.098 0 9.714-2.07 13.055-5.415a18.44 18.44 0 0 0 5.407-13.071 18.44 18.44 0 0 0-5.407-13.071 18.392 18.392 0 0 0-13.055-5.416Zm-46.646 0c-5.098 0-9.714 2.07-13.055 5.416a18.44 18.44 0 0 0-5.407 13.07 18.44 18.44 0 0 0 5.407 13.072 18.392 18.392 0 0 0 13.055 5.415c5.099 0 9.714-2.07 13.056-5.415a18.44 18.44 0 0 0 5.406-13.071 18.44 18.44 0 0 0-5.406-13.071 18.392 18.392 0 0 0-13.056-5.416Zm-46.645 0c-5.099 0-9.715 2.07-13.056 5.416a18.44 18.44 0 0 0-5.406 13.07 18.44 18.44 0 0 0 5.406 13.072 18.392 18.392 0 0 0 13.056 5.415c5.098 0 9.714-2.07 13.055-5.415a18.44 18.44 0 0 0 5.407-13.071 18.44 18.44 0 0 0-5.407-13.071 18.392 18.392 0 0 0-13.055-5.416Zm-46.646 0c-5.098 0-9.714 2.07-13.055 5.416a18.44 18.44 0 0 0-5.407 13.07 18.44 18.44 0 0 0 5.407 13.072 18.392 18.392 0 0 0 13.055 5.415c5.098 0 9.714-2.07 13.055-5.415a18.44 18.44 0 0 0 5.407-13.071 18.44 18.44 0 0 0-5.407-13.071A18.392 18.392 0 0 0 167.5 9.116Zm-46.646 0c-5.098 0-9.714 2.07-13.055 5.416a18.44 18.44 0 0 0-5.407 13.07 18.44 18.44 0 0 0 5.407 13.072 18.392 18.392 0 0 0 13.055 5.415c5.099 0 9.715-2.07 13.056-5.415a18.44 18.44 0 0 0 5.406-13.071 18.44 18.44 0 0 0-5.406-13.071 18.392 18.392 0 0 0-13.056-5.416Zm-46.645 0c-5.099 0-9.714 2.07-13.056 5.416a18.44 18.44 0 0 0-5.406 13.07 18.44 18.44 0 0 0 5.406 13.072 18.392 18.392 0 0 0 13.056 5.415c5.098 0 9.714-2.07 13.055-5.415a18.44 18.44 0 0 0 5.407-13.071 18.44 18.44 0 0 0-5.407-13.071A18.392 18.392 0 0 0 74.21 9.116Zm-46.646 0c-5.098 0-9.714 2.07-13.055 5.416A18.44 18.44 0 0 0 9.1 27.602a18.44 18.44 0 0 0 5.407 13.072 18.392 18.392 0 0 0 13.055 5.415c5.099 0 9.715-2.07 13.056-5.415a18.44 18.44 0 0 0 5.406-13.071 18.44 18.44 0 0 0-5.406-13.071 18.392 18.392 0 0 0-13.056-5.416Z" fill="#FFF" stroke="#000" stroke-width="3" fill-rule="evenodd"/></svg>