<svg xmlns="http://www.w3.org/2000/svg" xmlns:xlink="http://www.w3.org/1999/xlink" width="210" height="155" version="1.1" viewBox="0 0 210 155"><title>frog-yellow</title><desc>Created with Sketch.</desc><defs><circle id="path-1" cx="24" cy="24" r="24"/><circle id="path-3" cx="24" cy="24" r="24"/><rect id="path-5" width="138" height="138" x="0" y="0" rx="9"/><rect id="path-7" width="138" height="138" x="0" y="0" rx="9"/><rect id="path-9" width="110" height="70" x="0" y="0" rx="9"/></defs><g id="Page-1" fill="none" fill-rule="evenodd" stroke="none" stroke-width="1"><g id="frog-yellow" transform="translate(-13.000000, -24.000000)"><rect id="Rectangle-51" width="210" height="210" x="13" y="0" fill="#D8D8D8" fill-opacity="0"/><g id="Rectangle" transform="translate(49.000000, 24.000000)"><mask id="mask-2" fill="#fff"><use xlink:href="#path-1"/></mask><use id="Mask" fill="#FAFA41" xlink:href="#path-1"/><rect width="25" height="169" x="6" y="-4" fill="#C2C22C" mask="url(#mask-2)"/></g><g id="Rectangle" transform="translate(139.000000, 24.000000)"><mask id="mask-4" fill="#fff"><use xlink:href="#path-3"/></mask><use id="Mask" fill="#FAFA41" xlink:href="#path-3"/><rect width="25" height="169" x="16" y="-4" fill="#C2C22C" mask="url(#mask-4)"/></g><g id="frog-green-+-Rectangle-30" fill="#ECEC00" transform="translate(0.000000, 75.000000)"><ellipse id="frog-green" cx="46.538" cy="57.027" rx="26.5" ry="50.5" transform="translate(46.538193, 57.026578) rotate(-27.000000) translate(-46.538193, -57.026578)"/><rect id="Rectangle-30" width="56" height="15" x="13" y="89" rx="7.5"/></g><g id="frog-green-+-Rectangle-30" fill="#ECEC00" transform="translate(189.000000, 132.500000) scale(-1, 1) translate(-189.000000, -132.500000) translate(142.000000, 75.000000)"><ellipse id="frog-green" cx="46.538" cy="57.027" rx="26.5" ry="50.5" transform="translate(46.538193, 57.026578) rotate(-27.000000) translate(-46.538193, -57.026578)"/><rect id="Rectangle-30" width="56" height="15" x="13" y="89" rx="7.5"/></g><g id="Rectangle" transform="translate(49.000000, 41.000000)"><mask id="mask-6" fill="#fff"><use xlink:href="#path-5"/></mask><use id="Mask" fill="#FAFA41" xlink:href="#path-5"/><rect width="30" height="169" x="54" y="-11" fill="#B6B628" mask="url(#mask-6)"/><rect width="30" height="169" x="-6" y="-21" fill="#B6B628" mask="url(#mask-6)"/></g><g id="Rectangle" transform="translate(49.000000, 41.000000)"><mask id="mask-8" fill="#fff"><use xlink:href="#path-7"/></mask><use id="Mask" fill="#FAFA41" xlink:href="#path-7"/><rect width="25" height="169" x="56" y="-10" fill="#C2C22C" mask="url(#mask-8)"/><rect width="25" height="169" x="6" y="-21" fill="#C2C22C" mask="url(#mask-8)"/><rect width="25" height="169" x="106" y="-21" fill="#C2C22C" mask="url(#mask-8)"/></g><circle id="Oval-37" cx="73" cy="48" r="12" fill="#000" stroke="#FFF" stroke-width="5"/><circle id="Oval-37" cx="163" cy="48" r="12" fill="#000" stroke="#FFF" stroke-width="5"/><g id="Rectangle-+-Rectangle-Mask" transform="translate(62.000000, 93.000000)"><mask id="mask-10" fill="#fff"><use xlink:href="#path-9"/></mask><use id="Mask" fill="#FFFF95" xlink:href="#path-9"/><rect id="Rectangle" width="25" height="169" x="43" y="-63" fill="#EDED4B" mask="url(#mask-10)"/><rect id="Rectangle" width="40" height="169" x="93" y="-73" fill="#EDED4B" mask="url(#mask-10)"/><rect id="Rectangle" width="40" height="169" x="-22" y="-73" fill="#EDED4B" mask="url(#mask-10)"/></g></g></g></svg>