<svg xmlns="http://www.w3.org/2000/svg" xmlns:xlink="http://www.w3.org/1999/xlink" width="210" height="158" preserveAspectRatio="none" version="1.1" viewBox="0 0 210 210"><title>frog-yellow</title><desc>Created with Sketch.</desc><g id="Page-1" fill="none" fill-rule="evenodd" stroke="none" stroke-width="1" transform="translate(0, 26)"><g id="frog-yellow" transform="translate(-13.000000, -21.000000)"><rect id="Rectangle-51" width="210" height="210" x="13" y="0" fill="#D8D8D8" fill-opacity="0"/><circle id="Oval-29" cx="73" cy="45" r="24" fill="#FAFA41"/><circle id="Oval-29" cx="163" cy="45" r="24" fill="#FAFA41"/><g id="frog-green-+-Rectangle-30" fill="#ECEC00" transform="translate(0.000000, 75.000000)"><ellipse id="frog-green" cx="46.538" cy="57.027" rx="26.5" ry="50.5" transform="translate(46.538193, 57.026578) rotate(-27.000000) translate(-46.538193, -57.026578)"/><rect id="Rectangle-30" width="56" height="15" x="13" y="89" rx="9"/></g><g id="frog-green-+-Rectangle-30" fill="#ECEC00" transform="translate(189.000000, 132.500000) scale(-1, 1) translate(-189.000000, -132.500000) translate(142.000000, 75.000000)"><ellipse id="frog-green" cx="46.538" cy="57.027" rx="26.5" ry="50.5" transform="translate(46.538193, 57.026578) rotate(-27.000000) translate(-46.538193, -57.026578)"/><rect id="Rectangle-30" width="56" height="15" x="13" y="89" rx="9"/></g><rect id="Rectangle-30" width="138" height="138" x="49" y="41" fill="#FAFA41" rx="9"/><circle id="Oval-37" cx="73" cy="45" r="12" fill="#000" stroke="#FFF" stroke-width="5"/><circle id="Oval-37" cx="163" cy="45" r="12" fill="#000" stroke="#FFF" stroke-width="5"/><rect id="Rectangle-33" width="110" height="70" x="62" y="93" fill="#FFFF95" rx="9"/></g></g></svg>