<svg xmlns="http://www.w3.org/2000/svg" xmlns:xlink="http://www.w3.org/1999/xlink" width="210" height="158" preserveAspectRatio="none" version="1.1" viewBox="0 0 210 210"><title>frog-red</title><desc>Created with Sketch.</desc><g id="Page-1" fill="none" fill-rule="evenodd" stroke="none" stroke-width="1" transform="translate(0, 26)"><g id="frog-red" transform="translate(-13.000000, 0.000000)"><circle id="Oval-29" cx="73" cy="24" r="24" fill="#F66A68"/><circle id="Oval-29" cx="163" cy="24" r="24" fill="#F66A68"/><g id="frog-green-+-Rectangle-30" fill="#EE302D" transform="translate(0.000000, 54.000000)"><ellipse id="frog-green" cx="46.538" cy="57.027" rx="26.5" ry="50.5" transform="translate(46.538193, 57.026578) rotate(-27.000000) translate(-46.538193, -57.026578)"/><rect id="Rectangle-30" width="56" height="15" x="13" y="89" rx="9"/></g><g id="frog-green-+-Rectangle-30" fill="#EE302D" transform="translate(189.000000, 111.500000) scale(-1, 1) translate(-189.000000, -111.500000) translate(142.000000, 54.000000)"><ellipse id="frog-green" cx="46.538" cy="57.027" rx="26.5" ry="50.5" transform="translate(46.538193, 57.026578) rotate(-27.000000) translate(-46.538193, -57.026578)"/><rect id="Rectangle-30" width="56" height="15" x="13" y="89" rx="9"/></g><rect id="Rectangle-30" width="138" height="138" x="49" y="20" fill="#F66A68" rx="9"/><circle id="Oval-37" cx="73" cy="24" r="12" fill="#000" stroke="#FFF" stroke-width="5"/><circle id="Oval-37" cx="163" cy="24" r="12" fill="#000" stroke="#FFF" stroke-width="5"/><rect id="Rectangle-33" width="110" height="70" x="62" y="72" fill="#FB9290" rx="9"/></g></g></svg>