<svg xmlns="http://www.w3.org/2000/svg" xmlns:xlink="http://www.w3.org/1999/xlink" width="210" height="155" version="1.1" viewBox="0 0 210 155"><title>frog-green</title><desc>Created with Sketch.</desc><g id="Page-1" fill="none" fill-rule="evenodd" stroke="none" stroke-width="1"><g id="frog-green" transform="translate(-13.000000, 0.000000)"><circle id="Oval-29" cx="73" cy="24" r="24" fill="#69DA6B"/><circle id="Oval-29" cx="163" cy="24" r="24" fill="#69DA6B"/><g id="frog-green-+-Rectangle-30" fill="#4CC24F" transform="translate(0.000000, 51.000000)"><ellipse id="frog-green" cx="46.538" cy="57.027" rx="26.5" ry="50.5" transform="translate(46.538193, 57.026578) rotate(-27.000000) translate(-46.538193, -57.026578)"/><rect id="Rectangle-30" width="56" height="15" x="13" y="89" rx="7.5"/></g><g id="frog-green-+-Rectangle-30" fill="#4CC24F" transform="translate(189.000000, 108.500000) scale(-1, 1) translate(-189.000000, -108.500000) translate(142.000000, 51.000000)"><ellipse id="frog-green" cx="46.538" cy="57.027" rx="26.5" ry="50.5" transform="translate(46.538193, 57.026578) rotate(-27.000000) translate(-46.538193, -57.026578)"/><rect id="Rectangle-30" width="56" height="15" x="13" y="89" rx="7.5"/></g><rect id="Rectangle-30" width="138" height="138" x="49" y="17" fill="#69DA6B" rx="9"/><circle id="Oval-37" cx="73" cy="24" r="12" fill="#000" stroke="#FFF" stroke-width="5"/><circle id="Oval-37" cx="163" cy="24" r="12" fill="#000" stroke="#FFF" stroke-width="5"/><rect id="Rectangle-33" width="110" height="70" x="62" y="69" fill="#77F87A" rx="9"/></g></g></svg>