<svg xmlns="http://www.w3.org/2000/svg" xmlns:xlink="http://www.w3.org/1999/xlink" width="210" height="154" version="1.1" viewBox="0 0 210 154"><title>frog-red</title><desc>Created with Sketch.</desc><defs><ellipse id="path-1" cx="46.538" cy="57.027" rx="26.5" ry="50.5"/><ellipse id="path-3" cx="46.538" cy="57.027" rx="26.5" ry="50.5"/><rect id="path-5" width="138" height="138" x="0" y="0" rx="9"/><rect id="path-7" width="110" height="70" x="0" y="0" rx="9"/></defs><g id="Page-1" fill="none" fill-rule="evenodd" stroke="none" stroke-width="1"><g id="frog-red" transform="translate(-13.000000, 0.000000)"><circle id="Oval-29" cx="73" cy="24" r="24" fill="#F66A68"/><circle id="Oval-29" cx="163" cy="24" r="24" fill="#F66A68"/><g id="frog-green-+-Rectangle-30" transform="translate(0.000000, 50.000000)"><g id="Oval"><mask id="mask-2" fill="#fff"><use xlink:href="#path-1"/></mask><use id="Mask" fill="#EE302D" transform="translate(46.538193, 57.026578) rotate(-27.000000) translate(-46.538193, -57.026578)" xlink:href="#path-1"/><circle cx="55" cy="30" r="20" fill="#FFF" fill-opacity=".7" mask="url(#mask-2)"/><circle cx="15" cy="70" r="20" fill="#FFF" fill-opacity=".7" mask="url(#mask-2)"/></g><rect id="Rectangle-30" width="56" height="15" x="13" y="89" fill="#EE302D" rx="7.5"/></g><g id="frog-green-+-Rectangle-30" transform="translate(189.000000, 107.500000) scale(-1, 1) translate(-189.000000, -107.500000) translate(142.000000, 50.000000)"><g id="Oval"><mask id="mask-4" fill="#fff"><use xlink:href="#path-3"/></mask><use id="Mask" fill="#EE302D" transform="translate(46.538193, 57.026578) rotate(-27.000000) translate(-46.538193, -57.026578)" xlink:href="#path-3"/><circle cx="15" cy="37" r="20" fill="#FFF" fill-opacity=".7" mask="url(#mask-4)"/></g><rect id="Rectangle-30" width="56" height="15" x="13" y="89" fill="#EE302D" rx="7.5"/></g><g id="Oval" transform="translate(49.000000, 16.000000)"><mask id="mask-6" fill="#fff"><use xlink:href="#path-5"/></mask><use id="Mask" fill="#F66A68" xlink:href="#path-5"/><circle cx="73" cy="13" r="20" fill="#FFF" fill-opacity=".7" mask="url(#mask-6)"/></g><circle id="Oval-37" cx="73" cy="24" r="12" fill="#000" stroke="#FFF" stroke-width="5"/><circle id="Oval-37" cx="163" cy="24" r="12" fill="#000" stroke="#FFF" stroke-width="5"/><circle id="Oval" cx="93" cy="71" r="20" fill="#FFF" fill-opacity=".7"/><g id="Oval" transform="translate(62.000000, 69.000000)"><mask id="mask-8" fill="#fff"><use xlink:href="#path-7"/></mask><use id="Mask" fill="#FA9290" xlink:href="#path-7"/><circle cx="26" cy="75" r="20" fill="#FFF" fill-opacity=".7" mask="url(#mask-8)"/><circle cx="55" cy="31" r="20" fill="#FFF" fill-opacity=".7" mask="url(#mask-8)"/><circle cx="103" cy="56" r="20" fill="#FFF" fill-opacity=".7" mask="url(#mask-8)"/></g></g></g></svg>