<svg xmlns="http://www.w3.org/2000/svg" xmlns:xlink="http://www.w3.org/1999/xlink" width="160" height="160" version="1.1" viewBox="0 0 160 160"><title>lilypad-red</title><desc>Created with Sketch.</desc><defs><path id="path-1" d="M68.1410843,159.12709 C72.0105928,159.702089 75.9705059,126.101562 80,126.101562 C85.4632556,126.101562 90.798605,159.452368 95.9541484,158.409004 C132.492835,151.014406 160,118.719524 160,80 C160,35.81722 124.18278,0 80,0 C35.81722,0 0,35.81722 0,80 C0,120.153286 29.5820305,153.397318 68.1410843,159.12709 Z"/><path id="path-3" d="M68.1410843,159.12709 C72.0105928,159.702089 75.9705059,126.101562 80,126.101562 C85.4632556,126.101562 90.798605,159.452368 95.9541484,158.409004 C132.492835,151.014406 160,118.719524 160,80 C160,35.81722 124.18278,0 80,0 C35.81722,0 0,35.81722 0,80 C0,120.153286 29.5820305,153.397318 68.1410843,159.12709 Z"/></defs><g id="Page-1" fill="none" fill-rule="evenodd" stroke="none" stroke-width="1"><g id="lilypad-red"><mask id="mask-2" fill="#fff"><use xlink:href="#path-1"/></mask><use id="Mask" fill="#EE302D" xlink:href="#path-1"/><g id="Oval" mask="url(#mask-2)"><g transform="translate(0.000000, 15.000000)"><mask id="mask-4" fill="#fff"><use xlink:href="#path-3"/></mask><use id="Mask" fill="#CF1A18" fill-rule="evenodd" stroke="none" xlink:href="#path-3"/><circle id="Oval" cx="98" cy="12" r="20" fill="#FFF" fill-opacity=".7" fill-rule="evenodd" stroke="none" mask="url(#mask-4)"/></g></g><circle id="Oval" cx="19" cy="105" r="20" fill="#FFF" fill-opacity=".7" mask="url(#mask-2)"/><circle id="Oval" cx="47" cy="56" r="20" fill="#FFF" fill-opacity=".7" mask="url(#mask-2)"/><circle id="Oval" cx="76" cy="125" r="20" fill="#FFF" fill-opacity=".7" mask="url(#mask-2)"/><circle id="Oval" cx="153" cy="120" r="20" fill="#FFF" fill-opacity=".7" mask="url(#mask-2)"/><circle id="Oval" cx="113" cy="80" r="20" fill="#FFF" fill-opacity=".7" mask="url(#mask-2)"/></g></g></svg>