<svg xmlns="http://www.w3.org/2000/svg" xmlns:xlink="http://www.w3.org/1999/xlink" width="160" height="160" preserveAspectRatio="none" version="1.1" viewBox="0 0 160 160"><title>lilypad-yellow</title><desc>Created with Sketch.</desc><defs><path id="path-1" d="M68.1410843,159.12709 C72.0105928,159.702089 75.9705059,126.101562 80,126.101562 C85.4632556,126.101562 90.798605,159.452368 95.9541484,158.409004 C132.492835,151.014406 160,118.719524 160,80 C160,35.81722 124.18278,0 80,0 C35.81722,0 0,35.81722 0,80 C0,120.153286 29.5820305,153.397318 68.1410843,159.12709 Z"/></defs><g id="Page-1" fill="none" fill-rule="evenodd" stroke="none" stroke-width="1"><g id="lilypad-yellow"><mask id="mask-2" fill="#fff"><use xlink:href="#path-1"/></mask><use id="Mask" fill="#DDDD02" xlink:href="#path-1"/><path id="lilypad-green" fill="#C4C403" d="M68.1410843,174.12709 C72.0105928,174.702089 75.9705059,141.101562 80,141.101562 C85.4632556,141.101562 90.798605,174.452368 95.9541484,173.409004 C132.492835,166.014406 160,133.719524 160,95 C160,50.81722 124.18278,15 80,15 C35.81722,15 0,50.81722 0,95 C0,135.153286 29.5820305,168.397318 68.1410843,174.12709 Z" mask="url(#mask-2)"/></g></g></svg>