<svg width="100" height="100" viewBox="0 0 100 100" fill="none" xmlns="http://www.w3.org/2000/svg">
<rect width="100" height="100" rx="10" fill="#57407C"/>
<path d="M10.248 56.616C10.9733 56.04 11.304 55.7733 11.24 55.816C13.3307 54.088 14.9733 52.6693 16.168 51.56C17.384 50.4507 18.408 49.288 19.24 48.072C20.072 46.856 20.488 45.672 20.488 44.52C20.488 43.6453 20.2853 42.9627 19.88 42.472C19.4747 41.9813 18.8667 41.736 18.056 41.736C17.2453 41.736 16.6053 42.0453 16.136 42.664C15.688 43.2613 15.464 44.1147 15.464 45.224H10.184C10.2267 43.4107 10.6107 41.896 11.336 40.68C12.0827 39.464 13.0533 38.568 14.248 37.992C15.464 37.416 16.808 37.128 18.28 37.128C20.8187 37.128 22.728 37.7787 24.008 39.08C25.3093 40.3813 25.96 42.0773 25.96 44.168C25.96 46.4507 25.1813 48.5733 23.624 50.536C22.0667 52.4773 20.0827 54.376 17.672 56.232H26.312V60.68H10.248V56.616ZM28.7213 49C28.7213 45.3307 29.4253 42.44 30.8333 40.328C32.2626 38.216 34.5559 37.16 37.7133 37.16C40.8706 37.16 43.1533 38.216 44.5613 40.328C45.9906 42.44 46.7053 45.3307 46.7053 49C46.7053 52.712 45.9906 55.624 44.5613 57.736C43.1533 59.848 40.8706 60.904 37.7133 60.904C34.5559 60.904 32.2626 59.848 30.8333 57.736C29.4253 55.624 28.7213 52.712 28.7213 49ZM41.3293 49C41.3293 46.8453 41.0946 45.192 40.6253 44.04C40.1559 42.8667 39.1853 42.28 37.7133 42.28C36.2413 42.28 35.2706 42.8667 34.8013 44.04C34.3319 45.192 34.0973 46.8453 34.0973 49C34.0973 50.4507 34.1826 51.656 34.3533 52.616C34.5239 53.5547 34.8653 54.3227 35.3773 54.92C35.9106 55.496 36.6893 55.784 37.7133 55.784C38.7373 55.784 39.5053 55.496 40.0173 54.92C40.5506 54.3227 40.9026 53.5547 41.0733 52.616C41.2439 51.656 41.3293 50.4507 41.3293 49ZM49.7243 56.84V52.424L59.8363 37.96H65.9483V52.104H68.5723V56.84H65.9483V61H60.4763V56.84H49.7243ZM60.8603 43.976L55.4843 52.104H60.8603V43.976ZM75.0925 48.456C73.0872 47.3893 72.0845 45.7147 72.0845 43.432C72.0845 42.28 72.3832 41.2347 72.9805 40.296C73.5778 39.336 74.4845 38.5787 75.7005 38.024C76.9165 37.448 78.4098 37.16 80.1805 37.16C81.9512 37.16 83.4338 37.448 84.6285 38.024C85.8445 38.5787 86.7512 39.336 87.3485 40.296C87.9458 41.2347 88.2445 42.28 88.2445 43.432C88.2445 44.584 87.9672 45.5867 87.4125 46.44C86.8792 47.2933 86.1538 47.9653 85.2365 48.456C86.3885 49.0107 87.2738 49.7787 87.8925 50.76C88.5112 51.72 88.8205 52.8507 88.8205 54.152C88.8205 55.6667 88.4365 56.9787 87.6685 58.088C86.9005 59.176 85.8552 60.008 84.5325 60.584C83.2312 61.16 81.7805 61.448 80.1805 61.448C78.5805 61.448 77.1192 61.16 75.7965 60.584C74.4952 60.008 73.4605 59.176 72.6925 58.088C71.9245 56.9787 71.5405 55.6667 71.5405 54.152C71.5405 52.8293 71.8498 51.688 72.4685 50.728C73.0872 49.7467 73.9618 48.9893 75.0925 48.456ZM82.9325 44.264C82.9325 43.3893 82.6765 42.7173 82.1645 42.248C81.6738 41.7573 81.0125 41.512 80.1805 41.512C79.3485 41.512 78.6765 41.7573 78.1645 42.248C77.6738 42.7387 77.4285 43.4213 77.4285 44.296C77.4285 45.128 77.6845 45.7893 78.1965 46.28C78.7085 46.7493 79.3698 46.984 80.1805 46.984C80.9912 46.984 81.6525 46.7387 82.1645 46.248C82.6765 45.7573 82.9325 45.096 82.9325 44.264ZM80.1805 50.824C79.1778 50.824 78.3672 51.1013 77.7485 51.656C77.1298 52.1893 76.8205 52.936 76.8205 53.896C76.8205 54.792 77.1192 55.528 77.7165 56.104C78.3352 56.68 79.1565 56.968 80.1805 56.968C81.2045 56.968 82.0045 56.68 82.5805 56.104C83.1778 55.528 83.4765 54.792 83.4765 53.896C83.4765 52.9573 83.1672 52.2107 82.5485 51.656C81.9512 51.1013 81.1618 50.824 80.1805 50.824Z" fill="white"/>
</svg>
